<svg xmlns="http://www.w3.org/2000/svg" viewBox="0 0 512 512" id="treasure"><path fill="#a17855" d="M7.5,230V464a15,15,0,0,0,15,15h467a15,15,0,0,0,15-15h0V230Z"></path><path fill="#896848" d="M489.5,230V434a30,30,0,0,1-30,30H7.5a15,15,0,0,0,15,15h467a15,15,0,0,0,15-15V230Z"></path><rect width="397" height="149" x="57.5" y="280" fill="#57565c" rx="3"></rect><path fill="#3c3b41" d="M451.5,280h-12V394a20,20,0,0,1-20,20H57.5v12a3,3,0,0,0,3,3h391a3,3,0,0,0,3-3V283A3,3,0,0,0,451.5,280Z"></path><polygon fill="#7c5c42" points="504.5 230 7.5 230 47.5 178 464.5 178 504.5 230"></polygon><polygon fill="#6b4f3a" points="504.5 123 7.5 123 47.5 178 464.5 178 504.5 123"></polygon><path fill="#a17855" d="M504.5,123H7.5L36.94,56.75A40,40,0,0,1,73.49,33h365A40,40,0,0,1,475,56.75Z"></path><path fill="#896848" d="M475,56.75a40,40,0,0,0-29.05-23,40.26,40.26,0,0,1,4.77,8l16.95,38.12A20,20,0,0,1,449.44,108H14.17L7.5,123h497Z"></path><rect width="397" height="15" x="57.5" y="347" fill="#787681"></rect><rect width="15" height="15" x="439.5" y="347" fill="#57565c"></rect><circle cx="256" cy="354.5" r="74.01" fill="#aeadb3"></circle><path fill="#8b8893" d="M256,280.49a74.43,74.43,0,0,0-7.5.38,74,74,0,0,1,0,147.26A74,74,0,1,0,256,280.49Z"></path><path fill="#57565c" d="M274.52,344a18.52,18.52,0,1,0-30.2,14.38v13a12.08,12.08,0,0,0,12.07,12.09h0a12.08,12.08,0,0,0,12.08-12.08v-13.7A18.45,18.45,0,0,0,274.52,344Z"></path><path d="M422.42,409.5a7.5,7.5,0,1,0-7.5-7.5A7.5,7.5,0,0,0,422.42,409.5ZM57.5,436.5h397A7.5,7.5,0,0,0,462,429V280a7.5,7.5,0,0,0-7.5-7.5H57.5A7.5,7.5,0,0,0,50,280V429A7.5,7.5,0,0,0,57.5,436.5Zm389.5-15H302.34A81.52,81.52,0,0,0,337.15,362H447Zm0-134V347H337.15a81.52,81.52,0,0,0-34.81-59.5Zm-124.49,67A66.51,66.51,0,1,1,256,288,66.59,66.59,0,0,1,322.51,354.5ZM65,287.5H209.66A81.52,81.52,0,0,0,174.85,347H65ZM65,362H174.85a81.52,81.52,0,0,0,34.81,59.5H65Zm357.42-43.21a7.5,7.5,0,1,0-7.5-7.5A7.5,7.5,0,0,0,422.42,318.79ZM83.94,394.5a7.5,7.5,0,1,0,7.5,7.5A7.5,7.5,0,0,0,83.94,394.5ZM512,229.8c0-.15,0-.29,0-.43s0-.22,0-.33a2.76,2.76,0,0,0-.06-.4c0-.11,0-.22-.07-.33s-.06-.26-.1-.38-.06-.23-.1-.34-.08-.23-.13-.35l-.15-.34-.15-.32-.19-.35-.18-.29a3.53,3.53,0,0,0-.24-.34,1,1,0,0,0-.12-.17l-36.57-47.56,36.7-50.46.09-.15.13-.17c.07-.11.12-.22.18-.33l.21-.36c.09-.18.16-.36.24-.55l.15-.36a5.79,5.79,0,0,0,.18-.63,2.81,2.81,0,0,0,.08-.31,7.34,7.34,0,0,0,.16-1.93c0-.11,0-.22,0-.32s0-.44-.08-.65-.06-.26-.09-.38a5.29,5.29,0,0,0-.15-.57c0-.14-.1-.27-.15-.4s-.08-.23-.13-.35L481.89,53.7a47.53,47.53,0,0,0-43.4-28.2h-365a47.53,47.53,0,0,0-43.4,28.2L.65,120a2.6,2.6,0,0,0-.13.36c-.05.13-.11.25-.15.38s-.11.39-.15.58-.07.25-.09.38-.06.43-.08.65,0,.21,0,.32c0,.32,0,.64,0,1H0a7.39,7.39,0,0,0,.15,1,2.81,2.81,0,0,0,.08.31,5.79,5.79,0,0,0,.18.63c0,.13.1.24.15.36s.15.37.24.55l.21.36c.06.11.11.22.18.33l.13.17.09.15,36.7,50.46L1.56,225.43a1,1,0,0,0-.12.17,3.53,3.53,0,0,0-.24.34l-.18.29-.19.35-.15.32-.15.34c-.05.12-.09.23-.13.35s-.07.23-.1.34-.07.25-.1.38-.05.22-.07.33a2.76,2.76,0,0,0-.06.4c0,.11,0,.22,0,.33s0,.28,0,.43,0,.13,0,.2V464a22.52,22.52,0,0,0,22.5,22.5h467A22.52,22.52,0,0,0,512,464V230C512,229.93,512,229.87,512,229.8ZM43.79,59.8a32.52,32.52,0,0,1,29.7-19.3h365a32.52,32.52,0,0,1,29.7,19.3L493,115.5H19ZM22.23,130.5H489.77l-29.09,40H51.32Zm29,55H460.81l28.46,37H22.73ZM497,464a7.5,7.5,0,0,1-7.5,7.5H22.5A7.5,7.5,0,0,1,15,464V237.5H497ZM83.94,303.79a7.5,7.5,0,1,0,7.5,7.5A7.5,7.5,0,0,0,83.94,303.79ZM236.82,371.4a19.58,19.58,0,1,0,39.16,0V360.71A26,26,0,0,0,256,318h0a26,26,0,0,0-19.17,43.61Zm11.38-35.15A11,11,0,0,1,256,333h0a11,11,0,0,1,11,11h0a11,11,0,0,1-3.59,8.13,7.51,7.51,0,0,0-2.45,5.55v13.7a4.58,4.58,0,1,1-9.16,0v-13a7.5,7.5,0,0,0-2.77-5.82,11,11,0,0,1-.85-16.34Z"></path></svg>